<svg width="52" height="52" viewBox="0 0 52 52" fill="none" xmlns="http://www.w3.org/2000/svg">
<path d="M0.0714111 0.829361H2.11639V2.87434H0.0714111V0.829361ZM2.11639 0.829361H4.16137V2.87434H2.11639V0.829361ZM4.16137 0.829361H6.20634V2.87434H4.16137V0.829361ZM6.20634 0.829361H8.25132V2.87434H6.20634V0.829361ZM8.25132 0.829361H10.2963V2.87434H8.25132V0.829361ZM10.2963 0.829361H12.3413V2.87434H10.2963V0.829361ZM12.3413 0.829361H14.3863V2.87434H12.3413V0.829361ZM16.4312 0.829361H18.4762V2.87434H16.4312V0.829361ZM20.5212 0.829361H22.5662V2.87434H20.5212V0.829361ZM26.6561 0.829361H28.7011V2.87434H26.6561V0.829361ZM28.7011 0.829361H30.7461V2.87434H28.7011V0.829361ZM30.7461 0.829361H32.791V2.87434H30.7461V0.829361ZM36.881 0.829361H38.926V2.87434H36.881V0.829361ZM38.926 0.829361H40.971V2.87434H38.926V0.829361ZM40.971 0.829361H43.0159V2.87434H40.971V0.829361ZM43.0159 0.829361H45.0609V2.87434H43.0159V0.829361ZM45.0609 0.829361H47.1059V2.87434H45.0609V0.829361ZM47.1059 0.829361H49.1509V2.87434H47.1059V0.829361ZM49.1509 0.829361H51.1958V2.87434H49.1509V0.829361ZM0.0714111 2.87434H2.11639V4.91932H0.0714111V2.87434ZM12.3413 2.87434H14.3863V4.91932H12.3413V2.87434ZM18.4762 2.87434H20.5212V4.91932H18.4762V2.87434ZM20.5212 2.87434H22.5662V4.91932H20.5212V2.87434ZM22.5662 2.87434H24.6111V4.91932H22.5662V2.87434ZM26.6561 2.87434H28.7011V4.91932H26.6561V2.87434ZM28.7011 2.87434H30.7461V4.91932H28.7011V2.87434ZM30.7461 2.87434H32.791V4.91932H30.7461V2.87434ZM32.791 2.87434H34.836V4.91932H32.791V2.87434ZM36.881 2.87434H38.926V4.91932H36.881V2.87434ZM49.1509 2.87434H51.1958V4.91932H49.1509V2.87434ZM0.0714111 4.91932H2.11639V6.96429H0.0714111V4.91932ZM4.16137 4.91932H6.20634V6.96429H4.16137V4.91932ZM6.20634 4.91932H8.25132V6.96429H6.20634V4.91932ZM8.25132 4.91932H10.2963V6.96429H8.25132V4.91932ZM12.3413 4.91932H14.3863V6.96429H12.3413V4.91932ZM18.4762 4.91932H20.5212V6.96429H18.4762V4.91932ZM22.5662 4.91932H24.6111V6.96429H22.5662V4.91932ZM26.6561 4.91932H28.7011V6.96429H26.6561V4.91932ZM30.7461 4.91932H32.791V6.96429H30.7461V4.91932ZM36.881 4.91932H38.926V6.96429H36.881V4.91932ZM40.971 4.91932H43.0159V6.96429H40.971V4.91932ZM43.0159 4.91932H45.0609V6.96429H43.0159V4.91932ZM45.0609 4.91932H47.1059V6.96429H45.0609V4.91932ZM49.1509 4.91932H51.1958V6.96429H49.1509V4.91932ZM0.0714111 6.96429H2.11639V9.00927H0.0714111V6.96429ZM4.16137 6.96429H6.20634V9.00927H4.16137V6.96429ZM6.20634 6.96429H8.25132V9.00927H6.20634V6.96429ZM8.25132 6.96429H10.2963V9.00927H8.25132V6.96429ZM12.3413 6.96429H14.3863V9.00927H12.3413V6.96429ZM18.4762 6.96429H20.5212V9.00927H18.4762V6.96429ZM20.5212 6.96429H22.5662V9.00927H20.5212V6.96429ZM24.6111 6.96429H26.6561V9.00927H24.6111V6.96429ZM28.7011 6.96429H30.7461V9.00927H28.7011V6.96429ZM30.7461 6.96429H32.791V9.00927H30.7461V6.96429ZM36.881 6.96429H38.926V9.00927H36.881V6.96429ZM40.971 6.96429H43.0159V9.00927H40.971V6.96429ZM43.0159 6.96429H45.0609V9.00927H43.0159V6.96429ZM45.0609 6.96429H47.1059V9.00927H45.0609V6.96429ZM49.1509 6.96429H51.1958V9.00927H49.1509V6.96429ZM0.0714111 9.00927H2.11639V11.0542H0.0714111V9.00927ZM4.16137 9.00927H6.20634V11.0542H4.16137V9.00927ZM6.20634 9.00927H8.25132V11.0542H6.20634V9.00927ZM8.25132 9.00927H10.2963V11.0542H8.25132V9.00927ZM12.3413 9.00927H14.3863V11.0542H12.3413V9.00927ZM16.4312 9.00927H18.4762V11.0542H16.4312V9.00927ZM20.5212 9.00927H22.5662V11.0542H20.5212V9.00927ZM30.7461 9.00927H32.791V11.0542H30.7461V9.00927ZM32.791 9.00927H34.836V11.0542H32.791V9.00927ZM36.881 9.00927H38.926V11.0542H36.881V9.00927ZM40.971 9.00927H43.0159V11.0542H40.971V9.00927ZM43.0159 9.00927H45.0609V11.0542H43.0159V9.00927ZM45.0609 9.00927H47.1059V11.0542H45.0609V9.00927ZM49.1509 9.00927H51.1958V11.0542H49.1509V9.00927ZM0.0714111 11.0542H2.11639V13.0992H0.0714111V11.0542ZM12.3413 11.0542H14.3863V13.0992H12.3413V11.0542ZM16.4312 11.0542H18.4762V13.0992H16.4312V11.0542ZM18.4762 11.0542H20.5212V13.0992H18.4762V11.0542ZM22.5662 11.0542H24.6111V13.0992H22.5662V11.0542ZM24.6111 11.0542H26.6561V13.0992H24.6111V11.0542ZM36.881 11.0542H38.926V13.0992H36.881V11.0542ZM49.1509 11.0542H51.1958V13.0992H49.1509V11.0542ZM0.0714111 13.0992H2.11639V15.1442H0.0714111V13.0992ZM2.11639 13.0992H4.16137V15.1442H2.11639V13.0992ZM4.16137 13.0992H6.20634V15.1442H4.16137V13.0992ZM6.20634 13.0992H8.25132V15.1442H6.20634V13.0992ZM8.25132 13.0992H10.2963V15.1442H8.25132V13.0992ZM10.2963 13.0992H12.3413V15.1442H10.2963V13.0992ZM12.3413 13.0992H14.3863V15.1442H12.3413V13.0992ZM16.4312 13.0992H18.4762V15.1442H16.4312V13.0992ZM20.5212 13.0992H22.5662V15.1442H20.5212V13.0992ZM24.6111 13.0992H26.6561V15.1442H24.6111V13.0992ZM28.7011 13.0992H30.7461V15.1442H28.7011V13.0992ZM32.791 13.0992H34.836V15.1442H32.791V13.0992ZM36.881 13.0992H38.926V15.1442H36.881V13.0992ZM38.926 13.0992H40.971V15.1442H38.926V13.0992ZM40.971 13.0992H43.0159V15.1442H40.971V13.0992ZM43.0159 13.0992H45.0609V15.1442H43.0159V13.0992ZM45.0609 13.0992H47.1059V15.1442H45.0609V13.0992ZM47.1059 13.0992H49.1509V15.1442H47.1059V13.0992ZM49.1509 13.0992H51.1958V15.1442H49.1509V13.0992ZM22.5662 15.1442H24.6111V17.1892H22.5662V15.1442ZM28.7011 15.1442H30.7461V17.1892H28.7011V15.1442ZM32.791 15.1442H34.836V17.1892H32.791V15.1442ZM2.11639 17.1892H4.16137V19.2342H2.11639V17.1892ZM4.16137 17.1892H6.20634V19.2342H4.16137V17.1892ZM6.20634 17.1892H8.25132V19.2342H6.20634V17.1892ZM8.25132 17.1892H10.2963V19.2342H8.25132V17.1892ZM10.2963 17.1892H12.3413V19.2342H10.2963V17.1892ZM12.3413 17.1892H14.3863V19.2342H12.3413V17.1892ZM14.3863 17.1892H16.4312V19.2342H14.3863V17.1892ZM18.4762 17.1892H20.5212V19.2342H18.4762V17.1892ZM22.5662 17.1892H24.6111V19.2342H22.5662V17.1892ZM32.791 17.1892H34.836V19.2342H32.791V17.1892ZM38.926 17.1892H40.971V19.2342H38.926V17.1892ZM40.971 17.1892H43.0159V19.2342H40.971V17.1892ZM49.1509 17.1892H51.1958V19.2342H49.1509V17.1892ZM0.0714111 19.2342H2.11639V21.2791H0.0714111V19.2342ZM6.20634 19.2342H8.25132V21.2791H6.20634V19.2342ZM8.25132 19.2342H10.2963V21.2791H8.25132V19.2342ZM26.6561 19.2342H28.7011V21.2791H26.6561V19.2342ZM28.7011 19.2342H30.7461V21.2791H28.7011V19.2342ZM30.7461 19.2342H32.791V21.2791H30.7461V19.2342ZM34.836 19.2342H36.881V21.2791H34.836V19.2342ZM38.926 19.2342H40.971V21.2791H38.926V19.2342ZM43.0159 19.2342H45.0609V21.2791H43.0159V19.2342ZM45.0609 19.2342H47.1059V21.2791H45.0609V19.2342ZM0.0714111 21.2791H2.11639V23.3241H0.0714111V21.2791ZM2.11639 21.2791H4.16137V23.3241H2.11639V21.2791ZM4.16137 21.2791H6.20634V23.3241H4.16137V21.2791ZM6.20634 21.2791H8.25132V23.3241H6.20634V21.2791ZM8.25132 21.2791H10.2963V23.3241H8.25132V21.2791ZM12.3413 21.2791H14.3863V23.3241H12.3413V21.2791ZM14.3863 21.2791H16.4312V23.3241H14.3863V21.2791ZM16.4312 21.2791H18.4762V23.3241H16.4312V21.2791ZM18.4762 21.2791H20.5212V23.3241H18.4762V21.2791ZM20.5212 21.2791H22.5662V23.3241H20.5212V21.2791ZM22.5662 21.2791H24.6111V23.3241H22.5662V21.2791ZM24.6111 21.2791H26.6561V23.3241H24.6111V21.2791ZM26.6561 21.2791H28.7011V23.3241H26.6561V21.2791ZM28.7011 21.2791H30.7461V23.3241H28.7011V21.2791ZM30.7461 21.2791H32.791V23.3241H30.7461V21.2791ZM32.791 21.2791H34.836V23.3241H32.791V21.2791ZM34.836 21.2791H36.881V23.3241H34.836V21.2791ZM36.881 21.2791H38.926V23.3241H36.881V21.2791ZM38.926 21.2791H40.971V23.3241H38.926V21.2791ZM47.1059 21.2791H49.1509V23.3241H47.1059V21.2791ZM49.1509 21.2791H51.1958V23.3241H49.1509V21.2791ZM4.16137 23.3241H6.20634V25.3691H4.16137V23.3241ZM6.20634 23.3241H8.25132V25.3691H6.20634V23.3241ZM10.2963 23.3241H12.3413V25.3691H10.2963V23.3241ZM14.3863 23.3241H16.4312V25.3691H14.3863V23.3241ZM16.4312 23.3241H18.4762V25.3691H16.4312V23.3241ZM20.5212 23.3241H22.5662V25.3691H20.5212V23.3241ZM22.5662 23.3241H24.6111V25.3691H22.5662V23.3241ZM26.6561 23.3241H28.7011V25.3691H26.6561V23.3241ZM30.7461 23.3241H32.791V25.3691H30.7461V23.3241ZM36.881 23.3241H38.926V25.3691H36.881V23.3241ZM0.0714111 25.3691H2.11639V27.4141H0.0714111V25.3691ZM2.11639 25.3691H4.16137V27.4141H2.11639V25.3691ZM6.20634 25.3691H8.25132V27.4141H6.20634V25.3691ZM10.2963 25.3691H12.3413V27.4141H10.2963V25.3691ZM12.3413 25.3691H14.3863V27.4141H12.3413V25.3691ZM16.4312 25.3691H18.4762V27.4141H16.4312V25.3691ZM20.5212 25.3691H22.5662V27.4141H20.5212V25.3691ZM28.7011 25.3691H30.7461V27.4141H28.7011V25.3691ZM30.7461 25.3691H32.791V27.4141H30.7461V25.3691ZM34.836 25.3691H36.881V27.4141H34.836V25.3691ZM36.881 25.3691H38.926V27.4141H36.881V25.3691ZM40.971 25.3691H43.0159V27.4141H40.971V25.3691ZM43.0159 25.3691H45.0609V27.4141H43.0159V25.3691ZM45.0609 25.3691H47.1059V27.4141H45.0609V25.3691ZM49.1509 25.3691H51.1958V27.4141H49.1509V25.3691ZM0.0714111 27.4141H2.11639V29.459H0.0714111V27.4141ZM2.11639 27.4141H4.16137V29.459H2.11639V27.4141ZM4.16137 27.4141H6.20634V29.459H4.16137V27.4141ZM6.20634 27.4141H8.25132V29.459H6.20634V27.4141ZM14.3863 27.4141H16.4312V29.459H14.3863V27.4141ZM16.4312 27.4141H18.4762V29.459H16.4312V27.4141ZM18.4762 27.4141H20.5212V29.459H18.4762V27.4141ZM22.5662 27.4141H24.6111V29.459H22.5662V27.4141ZM26.6561 27.4141H28.7011V29.459H26.6561V27.4141ZM30.7461 27.4141H32.791V29.459H30.7461V27.4141ZM32.791 27.4141H34.836V29.459H32.791V27.4141ZM38.926 27.4141H40.971V29.459H38.926V27.4141ZM43.0159 27.4141H45.0609V29.459H43.0159V27.4141ZM47.1059 27.4141H49.1509V29.459H47.1059V27.4141ZM0.0714111 29.459H2.11639V31.504H0.0714111V29.459ZM6.20634 29.459H8.25132V31.504H6.20634V29.459ZM8.25132 29.459H10.2963V31.504H8.25132V29.459ZM12.3413 29.459H14.3863V31.504H12.3413V29.459ZM18.4762 29.459H20.5212V31.504H18.4762V29.459ZM20.5212 29.459H22.5662V31.504H20.5212V29.459ZM22.5662 29.459H24.6111V31.504H22.5662V29.459ZM26.6561 29.459H28.7011V31.504H26.6561V29.459ZM28.7011 29.459H30.7461V31.504H28.7011V29.459ZM38.926 29.459H40.971V31.504H38.926V29.459ZM43.0159 29.459H45.0609V31.504H43.0159V29.459ZM45.0609 29.459H47.1059V31.504H45.0609V29.459ZM47.1059 29.459H49.1509V31.504H47.1059V29.459ZM49.1509 29.459H51.1958V31.504H49.1509V29.459ZM0.0714111 31.504H2.11639V33.549H0.0714111V31.504ZM4.16137 31.504H6.20634V33.549H4.16137V31.504ZM6.20634 31.504H8.25132V33.549H6.20634V31.504ZM18.4762 31.504H20.5212V33.549H18.4762V31.504ZM22.5662 31.504H24.6111V33.549H22.5662V31.504ZM24.6111 31.504H26.6561V33.549H24.6111V31.504ZM26.6561 31.504H28.7011V33.549H26.6561V31.504ZM32.791 31.504H34.836V33.549H32.791V31.504ZM34.836 31.504H36.881V33.549H34.836V31.504ZM36.881 31.504H38.926V33.549H36.881V31.504ZM40.971 31.504H43.0159V33.549H40.971V31.504ZM49.1509 31.504H51.1958V33.549H49.1509V31.504ZM0.0714111 33.549H2.11639V35.594H0.0714111V33.549ZM6.20634 33.549H8.25132V35.594H6.20634V33.549ZM10.2963 33.549H12.3413V35.594H10.2963V33.549ZM12.3413 33.549H14.3863V35.594H12.3413V33.549ZM16.4312 33.549H18.4762V35.594H16.4312V33.549ZM18.4762 33.549H20.5212V35.594H18.4762V33.549ZM20.5212 33.549H22.5662V35.594H20.5212V33.549ZM22.5662 33.549H24.6111V35.594H22.5662V33.549ZM32.791 33.549H34.836V35.594H32.791V33.549ZM34.836 33.549H36.881V35.594H34.836V33.549ZM36.881 33.549H38.926V35.594H36.881V33.549ZM38.926 33.549H40.971V35.594H38.926V33.549ZM40.971 33.549H43.0159V35.594H40.971V33.549ZM43.0159 33.549H45.0609V35.594H43.0159V33.549ZM45.0609 33.549H47.1059V35.594H45.0609V33.549ZM47.1059 33.549H49.1509V35.594H47.1059V33.549ZM49.1509 33.549H51.1958V35.594H49.1509V33.549ZM16.4312 35.594H18.4762V37.639H16.4312V35.594ZM18.4762 35.594H20.5212V37.639H18.4762V35.594ZM22.5662 35.594H24.6111V37.639H22.5662V35.594ZM26.6561 35.594H28.7011V37.639H26.6561V35.594ZM28.7011 35.594H30.7461V37.639H28.7011V35.594ZM30.7461 35.594H32.791V37.639H30.7461V35.594ZM32.791 35.594H34.836V37.639H32.791V35.594ZM40.971 35.594H43.0159V37.639H40.971V35.594ZM45.0609 35.594H47.1059V37.639H45.0609V35.594ZM47.1059 35.594H49.1509V37.639H47.1059V35.594ZM0.0714111 37.639H2.11639V39.6839H0.0714111V37.639ZM2.11639 37.639H4.16137V39.6839H2.11639V37.639ZM4.16137 37.639H6.20634V39.6839H4.16137V37.639ZM6.20634 37.639H8.25132V39.6839H6.20634V37.639ZM8.25132 37.639H10.2963V39.6839H8.25132V37.639ZM10.2963 37.639H12.3413V39.6839H10.2963V37.639ZM12.3413 37.639H14.3863V39.6839H12.3413V37.639ZM16.4312 37.639H18.4762V39.6839H16.4312V37.639ZM18.4762 37.639H20.5212V39.6839H18.4762V37.639ZM20.5212 37.639H22.5662V39.6839H20.5212V37.639ZM24.6111 37.639H26.6561V39.6839H24.6111V37.639ZM28.7011 37.639H30.7461V39.6839H28.7011V37.639ZM30.7461 37.639H32.791V39.6839H30.7461V37.639ZM32.791 37.639H34.836V39.6839H32.791V37.639ZM36.881 37.639H38.926V39.6839H36.881V37.639ZM40.971 37.639H43.0159V39.6839H40.971V37.639ZM45.0609 37.639H47.1059V39.6839H45.0609V37.639ZM47.1059 37.639H49.1509V39.6839H47.1059V37.639ZM49.1509 37.639H51.1958V39.6839H49.1509V37.639ZM0.0714111 39.6839H2.11639V41.7289H0.0714111V39.6839ZM12.3413 39.6839H14.3863V41.7289H12.3413V39.6839ZM16.4312 39.6839H18.4762V41.7289H16.4312V39.6839ZM20.5212 39.6839H22.5662V41.7289H20.5212V39.6839ZM22.5662 39.6839H24.6111V41.7289H22.5662V39.6839ZM24.6111 39.6839H26.6561V41.7289H24.6111V39.6839ZM28.7011 39.6839H30.7461V41.7289H28.7011V39.6839ZM30.7461 39.6839H32.791V41.7289H30.7461V39.6839ZM32.791 39.6839H34.836V41.7289H32.791V39.6839ZM40.971 39.6839H43.0159V41.7289H40.971V39.6839ZM47.1059 39.6839H49.1509V41.7289H47.1059V39.6839ZM49.1509 39.6839H51.1958V41.7289H49.1509V39.6839ZM0.0714111 41.7289H2.11639V43.7739H0.0714111V41.7289ZM4.16137 41.7289H6.20634V43.7739H4.16137V41.7289ZM6.20634 41.7289H8.25132V43.7739H6.20634V41.7289ZM8.25132 41.7289H10.2963V43.7739H8.25132V41.7289ZM12.3413 41.7289H14.3863V43.7739H12.3413V41.7289ZM16.4312 41.7289H18.4762V43.7739H16.4312V41.7289ZM18.4762 41.7289H20.5212V43.7739H18.4762V41.7289ZM20.5212 41.7289H22.5662V43.7739H20.5212V41.7289ZM22.5662 41.7289H24.6111V43.7739H22.5662V41.7289ZM28.7011 41.7289H30.7461V43.7739H28.7011V41.7289ZM30.7461 41.7289H32.791V43.7739H30.7461V41.7289ZM32.791 41.7289H34.836V43.7739H32.791V41.7289ZM34.836 41.7289H36.881V43.7739H34.836V41.7289ZM36.881 41.7289H38.926V43.7739H36.881V41.7289ZM38.926 41.7289H40.971V43.7739H38.926V41.7289ZM40.971 41.7289H43.0159V43.7739H40.971V41.7289ZM43.0159 41.7289H45.0609V43.7739H43.0159V41.7289ZM45.0609 41.7289H47.1059V43.7739H45.0609V41.7289ZM47.1059 41.7289H49.1509V43.7739H47.1059V41.7289ZM0.0714111 43.7739H2.11639V45.8189H0.0714111V43.7739ZM4.16137 43.7739H6.20634V45.8189H4.16137V43.7739ZM6.20634 43.7739H8.25132V45.8189H6.20634V43.7739ZM8.25132 43.7739H10.2963V45.8189H8.25132V43.7739ZM12.3413 43.7739H14.3863V45.8189H12.3413V43.7739ZM16.4312 43.7739H18.4762V45.8189H16.4312V43.7739ZM24.6111 43.7739H26.6561V45.8189H24.6111V43.7739ZM34.836 43.7739H36.881V45.8189H34.836V43.7739ZM36.881 43.7739H38.926V45.8189H36.881V43.7739ZM40.971 43.7739H43.0159V45.8189H40.971V43.7739ZM43.0159 43.7739H45.0609V45.8189H43.0159V43.7739ZM49.1509 43.7739H51.1958V45.8189H49.1509V43.7739ZM0.0714111 45.8189H2.11639V47.8638H0.0714111V45.8189ZM4.16137 45.8189H6.20634V47.8638H4.16137V45.8189ZM6.20634 45.8189H8.25132V47.8638H6.20634V45.8189ZM8.25132 45.8189H10.2963V47.8638H8.25132V45.8189ZM12.3413 45.8189H14.3863V47.8638H12.3413V45.8189ZM16.4312 45.8189H18.4762V47.8638H16.4312V45.8189ZM18.4762 45.8189H20.5212V47.8638H18.4762V45.8189ZM28.7011 45.8189H30.7461V47.8638H28.7011V45.8189ZM30.7461 45.8189H32.791V47.8638H30.7461V45.8189ZM34.836 45.8189H36.881V47.8638H34.836V45.8189ZM38.926 45.8189H40.971V47.8638H38.926V45.8189ZM45.0609 45.8189H47.1059V47.8638H45.0609V45.8189ZM49.1509 45.8189H51.1958V47.8638H49.1509V45.8189ZM0.0714111 47.8638H2.11639V49.9088H0.0714111V47.8638ZM12.3413 47.8638H14.3863V49.9088H12.3413V47.8638ZM16.4312 47.8638H18.4762V49.9088H16.4312V47.8638ZM18.4762 47.8638H20.5212V49.9088H18.4762V47.8638ZM22.5662 47.8638H24.6111V49.9088H22.5662V47.8638ZM24.6111 47.8638H26.6561V49.9088H24.6111V47.8638ZM26.6561 47.8638H28.7011V49.9088H26.6561V47.8638ZM28.7011 47.8638H30.7461V49.9088H28.7011V47.8638ZM30.7461 47.8638H32.791V49.9088H30.7461V47.8638ZM32.791 47.8638H34.836V49.9088H32.791V47.8638ZM34.836 47.8638H36.881V49.9088H34.836V47.8638ZM36.881 47.8638H38.926V49.9088H36.881V47.8638ZM40.971 47.8638H43.0159V49.9088H40.971V47.8638ZM49.1509 47.8638H51.1958V49.9088H49.1509V47.8638ZM0.0714111 49.9088H2.11639V51.9538H0.0714111V49.9088ZM2.11639 49.9088H4.16137V51.9538H2.11639V49.9088ZM4.16137 49.9088H6.20634V51.9538H4.16137V49.9088ZM6.20634 49.9088H8.25132V51.9538H6.20634V49.9088ZM8.25132 49.9088H10.2963V51.9538H8.25132V49.9088ZM10.2963 49.9088H12.3413V51.9538H10.2963V49.9088ZM12.3413 49.9088H14.3863V51.9538H12.3413V49.9088ZM18.4762 49.9088H20.5212V51.9538H18.4762V49.9088ZM20.5212 49.9088H22.5662V51.9538H20.5212V49.9088ZM22.5662 49.9088H24.6111V51.9538H22.5662V49.9088ZM24.6111 49.9088H26.6561V51.9538H24.6111V49.9088ZM45.0609 49.9088H47.1059V51.9538H45.0609V49.9088ZM47.1059 49.9088H49.1509V51.9538H47.1059V49.9088ZM49.1509 49.9088H51.1958V51.9538H49.1509V49.9088Z" fill="white"/>
</svg>
